# Blender v3.6.4 OBJ File: ''
# www.blender.org
mtllib Arrow.mtl
o pointer-arrow
v -0.021899 0.021899 0.999998
v -0.021899 -0.021899 0.999998
v -0.000000 0.000000 1.053751
v 0.021899 -0.021899 0.999998
v 0.021899 0.021899 0.999998
v -0.021899 -0.021899 -0.000000
v -0.021899 0.021899 -0.000000
v 0.021899 0.021899 0.000000
v 0.021899 -0.021899 0.000000
v 0.021899 -0.444910 -0.093089
v -0.021899 -0.444910 -0.093089
v -0.444910 -0.021899 -0.093090
v -0.444910 0.021899 -0.093090
v -0.021899 0.444910 -0.093089
v 0.021899 0.444910 -0.093089
v 0.444910 0.021899 -0.093089
v 0.444910 -0.021899 -0.093089
vt 0.625000 0.500000
vt 0.625000 0.250000
vt 0.625000 0.500000
vt 0.625000 1.000000
vt 0.625000 0.750000
vt 0.625000 1.000000
vt 0.625000 0.000000
vt 0.625000 0.250000
vt 0.125000 0.500000
vt 0.375000 0.500000
vt 0.375000 0.750000
vt 0.125000 0.750000
vt 0.625000 0.750000
vt 0.375000 0.000000
vt 0.375000 0.250000
vt 0.375000 0.000000
vt 0.375000 0.250000
vt 0.375000 0.250000
vt 0.375000 0.500000
vt 0.375000 0.500000
vt 0.375000 0.750000
vt 0.375000 0.750000
vt 0.375000 1.000000
vt 0.375000 1.000000
vn -0.9261 0.0000 0.3773
vn 0.9261 0.0000 0.3773
vn 0.0000 -0.9261 0.3773
vn 0.0000 0.0000 -1.0000
vn 0.0000 0.9261 0.3773
vn 0.0000 -0.9326 0.3609
vn 1.0000 -0.0000 0.0000
vn -1.0000 0.0000 -0.0000
vn 0.0000 0.2149 -0.9766
vn -0.9326 0.0000 0.3609
vn 0.0000 -1.0000 0.0000
vn 0.0000 1.0000 0.0000
vn 0.2149 0.0000 -0.9766
vn 0.0000 0.9326 0.3609
vn 0.0000 -0.2149 -0.9766
vn 0.9326 0.0000 0.3609
vn -0.2149 0.0000 -0.9766
usemtl Material.001
s 1
f 1/1/1 2/2/1 3/3/1
f 4/4/2 5/5/2 3/6/2
f 2/2/3 4/7/3 3/8/3
f 6/9/4 7/10/4 8/11/4 9/12/4
f 5/5/5 1/1/5 3/13/5
f 10/14/6 4/7/6 2/2/6 11/15/6
f 4/7/7 10/14/7 9/16/7
f 6/17/8 11/15/8 2/2/8
f 9/16/9 10/14/9 11/15/9 6/17/9
f 12/18/10 2/2/10 1/1/10 13/19/10
f 2/2/11 12/18/11 6/17/11
f 7/10/12 13/19/12 1/1/12
f 6/17/13 12/18/13 13/19/13 7/10/13
f 14/20/14 1/1/14 5/5/14 15/21/14
f 1/1/8 14/20/8 7/10/8
f 8/11/7 15/21/7 5/5/7
f 7/10/15 14/20/15 15/21/15 8/11/15
f 16/22/16 5/5/16 4/4/16 17/23/16
f 5/5/12 16/22/12 8/11/12
f 9/24/11 17/23/11 4/4/11
f 8/11/17 16/22/17 17/23/17 9/24/17
